<?xml version="1.0" encoding="utf-8"?>
<!-- Generator: Adobe Illustrator 16.0.2, SVG Export Plug-In . SVG Version: 6.00 Build 0)  -->
<!DOCTYPE svg PUBLIC "-//W3C//DTD SVG 1.0//EN" "http://www.w3.org/TR/2001/REC-SVG-20010904/DTD/svg10.dtd">
<svg version="1.0" id="Layer_1" xmlns:sketch="http://www.bohemiancoding.com/sketch/ns"
	 xmlns="http://www.w3.org/2000/svg" xmlns:xlink="http://www.w3.org/1999/xlink" x="0px" y="0px" width="250px" height="31px"
	 viewBox="0 0 250 31" enable-background="new 0 0 250 31" xml:space="preserve">
<title>EnvatoTuts+_white</title>
<desc>Created with Sketch.</desc>
<g>
	<path fill="#FFFFFF" d="M38.405,14.662c0-5.096,0-6.011-0.078-7.057c-0.077-1.111-0.387-1.633-1.664-1.862
		c-0.311-0.065-0.967-0.099-1.315-0.099c-0.156,0-0.311-0.065-0.311-0.195c0-0.195,0.193-0.262,0.619-0.262
		c0.891,0,1.936,0,2.788,0.033l1.586,0.066c0.271,0,7.973,0,8.863-0.032c0.734-0.034,1.354-0.098,1.665-0.164
		c0.193-0.033,0.348-0.164,0.542-0.164c0.115,0,0.155,0.13,0.155,0.293c0,0.229-0.193,0.622-0.31,1.536
		c-0.038,0.327-0.115,1.765-0.193,2.157c-0.04,0.163-0.117,0.359-0.271,0.359c-0.233,0-0.31-0.164-0.31-0.426
		c0-0.229-0.038-0.783-0.231-1.176c-0.271-0.522-0.659-0.915-2.748-1.11c-0.659-0.065-4.877-0.099-5.303-0.099
		c-0.155,0-0.233,0.099-0.233,0.328v9.017c0,0.229,0.04,0.326,0.233,0.326c0.502,0,5.263,0,6.153-0.063
		c0.929-0.066,1.472-0.133,1.819-0.459c0.271-0.262,0.426-0.424,0.581-0.424c0.117,0,0.193,0.064,0.193,0.261
		c0,0.194-0.193,0.75-0.31,1.829c-0.078,0.653-0.155,1.861-0.155,2.091c0,0.262,0,0.621-0.271,0.621
		c-0.193,0-0.271-0.132-0.271-0.294c0-0.327,0-0.653-0.155-1.078c-0.153-0.457-0.502-1.013-2.011-1.144
		c-1.045-0.099-4.877-0.163-5.536-0.163c-0.193,0-0.271,0.097-0.271,0.229v2.875c0,1.111-0.038,4.9,0,5.586
		c0.117,2.255,0.696,2.68,4.491,2.68c1.005,0,2.708,0,3.715-0.359c1.005-0.359,1.47-1.014,1.741-2.353
		c0.078-0.359,0.155-0.491,0.349-0.491c0.232,0,0.232,0.263,0.232,0.491c0,0.262-0.309,2.482-0.502,3.169
		c-0.271,0.849-0.581,0.849-2.09,0.849c-2.902,0-5.031-0.064-6.541-0.098c-1.51-0.064-2.439-0.099-3.019-0.099
		c-0.077,0-0.736,0-1.549,0.034c-0.773,0-1.664,0.064-2.244,0.064c-0.426,0-0.619-0.064-0.619-0.261c0-0.1,0.078-0.197,0.31-0.197
		c0.348,0,0.813-0.065,1.162-0.129c0.773-0.133,0.967-0.851,1.122-1.798c0.193-1.373,0.193-3.951,0.193-7.089V14.662z"/>
	<path fill="#FFFFFF" d="M63.071,25.443c0.077,2.679,0.465,3.528,1.51,3.788c0.736,0.164,1.586,0.196,1.935,0.196
		c0.194,0,0.311,0.066,0.311,0.197c0,0.196-0.233,0.261-0.697,0.261c-2.206,0-3.755-0.099-4.103-0.099
		c-0.348,0-1.975,0.099-3.716,0.099c-0.388,0-0.619-0.032-0.619-0.261c0-0.131,0.117-0.197,0.31-0.197
		c0.309,0,1.005-0.032,1.587-0.196c0.968-0.227,1.161-1.175,1.161-4.147l0.038-18.72c0-1.274,0.117-1.633,0.425-1.633
		c0.311,0,0.967,0.718,1.356,1.045c0.579,0.555,6.347,5.815,12.308,11.205c3.833,3.463,8.051,7.45,9.289,8.527L83.74,8.912
		c-0.039-2.124-0.31-2.842-1.51-3.104c-0.696-0.13-1.586-0.164-1.896-0.164c-0.271,0-0.309-0.097-0.309-0.229
		c0-0.196,0.309-0.229,0.774-0.229c1.741,0,3.599,0.099,4.024,0.099c0.427,0,1.703-0.099,3.29-0.099
		c0.426,0,0.696,0.033,0.696,0.229c0,0.132-0.154,0.229-0.425,0.229c-0.194,0-0.464,0-0.927,0.099
		c-1.278,0.229-1.433,0.947-1.433,2.908l-0.077,19.145c0,2.156-0.078,2.32-0.349,2.32c-0.31,0-0.775-0.361-2.825-2.091
		c-0.428-0.327-6-5.131-10.102-8.854c-4.489-4.083-8.864-8.2-10.102-9.375L63.071,25.443z"/>
	<path fill="#FFFFFF" d="M98.699,14.662c0-5.096,0-6.011-0.077-7.057c-0.077-1.111-0.388-1.633-1.665-1.862
		c-0.31-0.065-0.967-0.099-1.316-0.099c-0.155,0-0.31-0.065-0.31-0.195c0-0.195,0.193-0.262,0.619-0.262
		c0.891,0,1.935,0,2.788,0.033l1.586,0.066c0.271,0,7.974,0,8.863-0.032c0.735-0.034,1.354-0.098,1.665-0.164
		c0.194-0.033,0.348-0.164,0.542-0.164c0.115,0,0.154,0.13,0.154,0.293c0,0.229-0.193,0.622-0.31,1.536
		c-0.038,0.327-0.116,1.765-0.192,2.157c-0.04,0.163-0.117,0.359-0.271,0.359c-0.233,0-0.31-0.164-0.31-0.426
		c0-0.229-0.038-0.783-0.232-1.176c-0.271-0.522-0.659-0.915-2.749-1.11c-0.658-0.065-4.876-0.099-5.302-0.099
		c-0.155,0-0.233,0.099-0.233,0.328v9.017c0,0.229,0.04,0.326,0.233,0.326c0.502,0,5.263,0,6.154-0.063
		c0.929-0.066,1.472-0.133,1.819-0.459c0.271-0.262,0.426-0.424,0.58-0.424c0.117,0,0.193,0.064,0.193,0.261
		c0,0.194-0.193,0.75-0.31,1.829c-0.078,0.653-0.154,1.861-0.154,2.091c0,0.262,0,0.621-0.271,0.621
		c-0.194,0-0.271-0.132-0.271-0.294c0-0.327,0-0.653-0.155-1.078c-0.154-0.457-0.502-1.013-2.012-1.144
		c-1.044-0.099-4.876-0.163-5.535-0.163c-0.193,0-0.271,0.097-0.271,0.229v2.875c0,1.111-0.038,4.9,0,5.586
		c0.117,2.255,0.697,2.68,4.491,2.68c1.005,0,2.708,0,3.715-0.359c1.005-0.359,1.47-1.014,1.741-2.353
		c0.078-0.359,0.155-0.491,0.348-0.491c0.232,0,0.232,0.263,0.232,0.491c0,0.262-0.309,2.482-0.502,3.169
		c-0.271,0.849-0.58,0.849-2.09,0.849c-2.902,0-5.031-0.064-6.541-0.098c-1.51-0.064-2.439-0.099-3.02-0.099
		c-0.077,0-0.736,0-1.549,0.034c-0.773,0-1.664,0.064-2.244,0.064c-0.426,0-0.619-0.064-0.619-0.261c0-0.1,0.077-0.197,0.31-0.197
		c0.348,0,0.813-0.065,1.161-0.129c0.773-0.133,0.967-0.851,1.122-1.798c0.193-1.373,0.193-3.951,0.193-7.089V14.662z"/>
	<path fill="#FFFFFF" d="M119.844,29.46c-0.542-0.229-0.579-0.358-0.579-1.241c0-1.632,0.153-2.94,0.191-3.463
		c0.04-0.359,0.117-0.521,0.311-0.521c0.231,0,0.271,0.097,0.271,0.359c0,0.294,0,0.75,0.117,1.208
		c0.58,2.417,3.133,3.333,5.728,3.333c3.716,0,5.533-2.254,5.533-4.345c0-2.256-1.122-3.563-4.449-5.881l-1.743-1.21
		c-4.102-2.841-5.032-4.867-5.032-7.088c0-3.496,3.096-5.88,8.013-5.88c1.51,0,2.632,0.131,3.599,0.326
		c0.736,0.13,1.045,0.163,1.355,0.163c0.31,0,0.386,0.066,0.386,0.229c0,0.164-0.154,1.241-0.154,3.463
		c0,0.523-0.077,0.75-0.271,0.75c-0.232,0-0.271-0.162-0.31-0.424c-0.039-0.393-0.271-1.274-0.504-1.633
		c-0.231-0.359-1.276-1.732-4.838-1.732c-2.671,0-4.76,1.405-4.76,3.79c0,1.864,1.005,3.04,4.721,5.49l1.085,0.717
		c4.565,3.04,5.649,5.064,5.649,7.68c0,1.338-0.619,3.819-3.289,5.422c-1.665,0.979-3.754,1.372-5.844,1.372
		C123.211,30.344,121.431,30.115,119.844,29.46z"/>
	<path fill="#FFFFFF" d="M148.691,21.425c0-1.765-0.388-2.484-0.891-3.432c-0.271-0.521-5.458-7.709-6.812-9.408
		c-0.967-1.208-1.938-2.025-2.633-2.418c-0.58-0.325-1.315-0.523-1.665-0.523c-0.193,0-0.386-0.065-0.386-0.229
		c0-0.13,0.154-0.229,0.503-0.229c0.736,0,3.639,0.099,3.833,0.099c0.271,0,1.741-0.099,3.25-0.099c0.426,0,0.503,0.099,0.503,0.229
		c0,0.132-0.231,0.164-0.58,0.294c-0.31,0.132-0.505,0.327-0.505,0.589c0,0.391,0.195,0.784,0.505,1.273
		c0.619,0.948,6.425,9.377,7.12,10.325c0.736-1.372,5.651-8.528,6.427-9.605c0.503-0.686,0.657-1.241,0.657-1.667
		c0-0.458-0.154-0.816-0.619-0.915c-0.349-0.097-0.58-0.163-0.58-0.326c0-0.13,0.231-0.197,0.619-0.197
		c1.005,0,2.244,0.099,2.554,0.099c0.232,0,3.02-0.099,3.754-0.099c0.271,0,0.504,0.066,0.504,0.197c0,0.164-0.194,0.26-0.504,0.26
		c-0.425,0-1.162,0.132-1.778,0.458c-0.776,0.392-1.201,0.785-2.053,1.667c-1.276,1.306-6.696,8.984-7.393,10.39
		c-0.58,1.176-0.58,2.188-0.58,3.267v2.81c0,0.521,0,1.894,0.116,3.267c0.078,0.947,0.426,1.665,1.588,1.798
		c0.539,0.063,1.392,0.129,1.741,0.129c0.231,0,0.308,0.098,0.308,0.197c0,0.162-0.192,0.261-0.619,0.261
		c-2.129,0-4.566-0.099-4.761-0.099c-0.193,0-2.632,0.099-3.792,0.099c-0.426,0-0.619-0.064-0.619-0.261
		c0-0.1,0.076-0.197,0.31-0.197c0.349,0,0.813-0.065,1.16-0.129c0.775-0.133,1.124-0.851,1.2-1.798
		c0.117-1.373,0.117-2.745,0.117-3.267V21.425z"/>
</g>
<g>
	<rect y="25.941" fill="#7AAC41" width="31.563" height="3.946"/>
	<rect x="8.73" y="15.572" fill="#7AAC41" width="22.833" height="3.945"/>
	<rect x="17.46" y="5.202" fill="#7AAC41" width="14.103" height="3.945"/>
</g>
</svg>
