<?xml version="1.0" encoding="utf-8"?>
<!-- Generator: Adobe Illustrator 16.0.2, SVG Export Plug-In . SVG Version: 6.00 Build 0)  -->
<!DOCTYPE svg PUBLIC "-//W3C//DTD SVG 1.0//EN" "http://www.w3.org/TR/2001/REC-SVG-20010904/DTD/svg10.dtd">
<svg version="1.0" id="Layer_1" xmlns:sketch="http://www.bohemiancoding.com/sketch/ns"
	 xmlns="http://www.w3.org/2000/svg" xmlns:xlink="http://www.w3.org/1999/xlink" x="0px" y="0px" width="250px" height="31px"
	 viewBox="0 0 250 31" enable-background="new 0 0 250 31" xml:space="preserve">
<title>EnvatoTuts+_white</title>
<desc>Created with Sketch.</desc>
<rect x="-0.032" y="23.688" fill="#7AAC41" width="27.625" height="6.406"/>
<rect x="9.01" y="13.206" fill="#7AAC41" width="18.583" height="6.406"/>
<rect x="17.917" y="2.725" fill="#7AAC41" width="9.748" height="6.406"/>
<g>
	<path fill="#7A0E0E" d="M38.997-35.284v10.809h6.01c1.56,0,2.601-0.235,3.126-0.706c0.7-0.619,1.089-1.708,1.17-3.267h0.746v9.52
		h-0.746c-0.188-1.331-0.376-2.186-0.565-2.562c-0.241-0.471-0.638-0.841-1.189-1.11c-0.551-0.269-1.398-0.402-2.542-0.402h-6.01
		v9.016c0,1.209,0.054,1.945,0.162,2.208c0.106,0.262,0.295,0.47,0.564,0.625c0.27,0.155,0.78,0.231,1.533,0.231h4.639
		c1.546,0,2.668-0.107,3.368-0.322c0.699-0.216,1.371-0.639,2.016-1.271c0.833-0.833,1.688-2.091,2.562-3.771h0.807l-2.36,6.856
		H31.212v-0.746h0.968c0.646,0,1.257-0.154,1.835-0.464c0.431-0.215,0.723-0.538,0.877-0.969c0.155-0.429,0.232-1.31,0.232-2.64
		v-17.769c0-1.735-0.174-2.803-0.524-3.207c-0.484-0.538-1.291-0.806-2.42-0.806h-0.968v-0.746h21.075l0.303,5.99h-0.786
		c-0.282-1.439-0.595-2.427-0.938-2.965c-0.342-0.537-0.85-0.947-1.522-1.23c-0.537-0.201-1.486-0.302-2.844-0.302H38.997z"/>
	<path fill="#7A0E0E" d="M55.05-36.776h7.422l16.719,20.51v-15.771c0-1.681-0.188-2.729-0.565-3.146
		c-0.497-0.565-1.284-0.847-2.359-0.847h-0.948v-0.746h9.519v0.746h-0.968c-1.157,0-1.976,0.35-2.46,1.048
		c-0.296,0.431-0.444,1.412-0.444,2.945v23.052h-0.726l-18.03-22.024v16.841c0,1.68,0.183,2.729,0.545,3.146
		c0.51,0.564,1.297,0.847,2.359,0.847h0.968v0.746h-9.519v-0.746h0.948c1.169,0,1.997-0.35,2.48-1.049
		c0.296-0.431,0.444-1.412,0.444-2.943v-19.019c-0.792-0.928-1.395-1.54-1.805-1.835c-0.41-0.296-1.012-0.572-1.806-0.827
		c-0.39-0.121-0.981-0.181-1.774-0.181V-36.776z"/>
	<path fill="#7A0E0E" d="M94.054-35.284v10.809h6.01c1.56,0,2.602-0.235,3.126-0.706c0.7-0.619,1.089-1.708,1.17-3.267h0.746v9.52
		h-0.746c-0.188-1.331-0.376-2.186-0.565-2.562c-0.242-0.471-0.639-0.841-1.189-1.11c-0.551-0.269-1.398-0.402-2.542-0.402h-6.01
		v9.016c0,1.209,0.054,1.945,0.161,2.208c0.108,0.262,0.296,0.47,0.565,0.625c0.269,0.155,0.779,0.231,1.532,0.231h4.639
		c1.546,0,2.669-0.107,3.368-0.322c0.7-0.216,1.372-0.639,2.017-1.271c0.833-0.833,1.687-2.091,2.561-3.771h0.807l-2.359,6.856
		H86.269v-0.746h0.968c0.645,0,1.257-0.154,1.835-0.464c0.431-0.215,0.723-0.538,0.877-0.969c0.154-0.429,0.231-1.31,0.231-2.64
		v-17.769c0-1.735-0.174-2.803-0.523-3.207c-0.484-0.538-1.291-0.806-2.42-0.806h-0.968v-0.746h21.076l0.302,5.99h-0.786
		c-0.282-1.439-0.595-2.427-0.938-2.965c-0.343-0.537-0.851-0.947-1.523-1.23c-0.537-0.201-1.485-0.302-2.843-0.302H94.054z"/>
	<path fill="#7A0E0E" d="M129.59-37.402v9.459h-0.746c-0.242-1.815-0.678-3.261-1.302-4.336c-0.626-1.076-1.516-1.93-2.673-2.562
		c-1.156-0.632-2.352-0.948-3.589-0.948c-1.398,0-2.554,0.427-3.469,1.28c-0.914,0.854-1.372,1.826-1.372,2.915
		c0,0.833,0.29,1.593,0.868,2.279c0.833,1.008,2.816,2.353,5.949,4.034c2.554,1.372,4.299,2.422,5.234,3.156
		c0.934,0.733,1.653,1.597,2.158,2.592c0.504,0.995,0.756,2.037,0.756,3.126c0,2.07-0.803,3.855-2.41,5.355
		c-1.606,1.498-3.674,2.248-6.202,2.248c-0.792,0-1.54-0.062-2.238-0.182c-0.416-0.066-1.281-0.313-2.591-0.736
		s-2.142-0.636-2.49-0.636c-0.336,0-0.602,0.103-0.797,0.303c-0.195,0.201-0.339,0.618-0.434,1.251h-0.746v-9.379h0.746
		c0.35,1.964,0.82,3.433,1.412,4.407c0.591,0.975,1.496,1.785,2.712,2.429c1.217,0.647,2.551,0.969,4.003,0.969
		c1.681,0,3.008-0.443,3.983-1.331c0.976-0.888,1.463-1.936,1.463-3.146c0-0.671-0.186-1.351-0.555-2.036s-0.945-1.324-1.725-1.916
		c-0.523-0.402-1.956-1.261-4.296-2.571c-2.339-1.312-4.003-2.356-4.991-3.136c-0.989-0.779-1.738-1.64-2.249-2.581
		c-0.511-0.94-0.766-1.976-0.766-3.105c0-1.963,0.752-3.654,2.258-5.072c1.506-1.418,3.422-2.128,5.748-2.128
		c1.452,0,2.991,0.357,4.619,1.069c0.753,0.335,1.284,0.504,1.593,0.504c0.35,0,0.635-0.104,0.857-0.313
		c0.222-0.208,0.399-0.628,0.535-1.26H129.59z"/>
	<path fill="#7A0E0E" d="M153.307-36.776h9.539v0.746h-0.523c-0.35,0-0.863,0.155-1.535,0.464s-1.283,0.753-1.834,1.331
		c-0.551,0.578-1.229,1.519-2.037,2.824l-6.596,10.387v6.857c0,1.68,0.189,2.729,0.566,3.146c0.512,0.564,1.316,0.847,2.42,0.847
		h0.887v0.746h-11.615v-0.746h0.967c1.154,0,1.977-0.35,2.461-1.049c0.295-0.431,0.441-1.412,0.441-2.943v-6.475l-7.502-11.455
		c-0.885-1.344-1.488-2.185-1.805-2.521c-0.314-0.336-0.971-0.74-1.967-1.21c-0.268-0.134-0.657-0.202-1.168-0.202v-0.746h11.697
		v0.746h-0.605c-0.633,0-1.215,0.147-1.744,0.443c-0.531,0.296-0.797,0.739-0.797,1.331c0,0.484,0.41,1.358,1.23,2.622l5.709,8.814
		l5.361-8.431c0.809-1.264,1.213-2.204,1.213-2.823c0-0.376-0.1-0.713-0.293-1.009c-0.197-0.296-0.475-0.528-0.84-0.696
		c-0.361-0.168-0.904-0.252-1.631-0.252V-36.776z"/>
</g>
<g>
	<path fill="#FFFFFF" d="M30.313,30.05v-1.427h2.551c0.635,0,1.21-0.231,1.663-0.669c0.493-0.477,0.753-1.133,0.753-1.903V6.865
		c0-1.156-0.452-1.77-0.831-2.082C33.98,4.401,33.422,4.21,32.786,4.21h-2.474V2.741h28.483v9.186h-1.507
		c-0.04-0.51-0.087-1.042-0.141-1.594c-0.099-1.017-0.332-1.976-0.693-2.852c-0.396-0.948-1.004-1.732-1.809-2.339
		c-0.823-0.619-1.918-0.932-3.253-0.932H39.92v10.852h5.552c1.052,0,1.914-0.319,2.563-0.95c0.676-0.645,1.038-1.531,1.038-2.556
		v-1.439h1.279V21.69h-1.317v-0.796c0-1.175-0.228-2.156-0.675-2.917c-0.532-0.902-1.529-1.36-2.966-1.36H39.92v11.96h11.932
		c1.429,0,2.569-0.393,3.393-1.169c0.773-0.729,1.349-1.637,1.711-2.699c0.336-0.979,0.549-2.04,0.634-3.149
		c0.047-0.622,0.09-1.21,0.127-1.763h1.574V30.05H30.313z"/>
	<path fill="#FFFFFF" d="M86.373,30.05L68.301,6.226v19.87c0,1.157,0.481,1.745,0.886,2.032c0.431,0.324,1.004,0.495,1.685,0.495
		h2.36v1.427H61.292v-1.427h2.55c0.636,0,1.211-0.231,1.664-0.669c0.493-0.478,0.753-1.135,0.753-1.903V6.779
		c0-0.617-0.221-1.198-0.656-1.728c-0.314-0.384-0.902-0.841-1.915-0.841h-2.397V2.741h10.005l17.009,22.983V6.865
		c0-1.324-0.526-1.936-0.967-2.217c-0.488-0.296-1.098-0.438-1.833-0.438h-2.053V2.741h11.823V4.21h-2.397
		c-0.653,0-1.218,0.18-1.676,0.535c-0.388,0.298-0.854,0.901-0.854,2.078V30.05H86.373z"/>
	<path fill="#FFFFFF" d="M97.214,30.05v-1.427h2.55c0.635,0,1.209-0.231,1.664-0.668c0.493-0.479,0.753-1.135,0.753-1.904V6.865
		c0-1.155-0.452-1.77-0.831-2.082c-0.47-0.382-1.027-0.573-1.663-0.573h-2.473V2.741h28.484v9.186h-1.508
		c-0.04-0.51-0.087-1.041-0.141-1.592c-0.1-1.022-0.333-1.982-0.695-2.855c-0.393-0.944-1.001-1.731-1.808-2.337
		c-0.824-0.619-1.917-0.932-3.252-0.932h-11.473v10.852h5.552c1.052,0,1.914-0.319,2.563-0.95c0.677-0.645,1.037-1.531,1.037-2.556
		v-1.439h1.28V21.69h-1.318v-0.796c0-1.175-0.228-2.156-0.674-2.916c-0.533-0.903-1.53-1.361-2.965-1.361h-5.475v11.96h11.932
		c1.428,0,2.57-0.393,3.392-1.169c0.772-0.727,1.35-1.634,1.712-2.699c0.335-0.975,0.549-2.035,0.633-3.148
		c0.048-0.623,0.09-1.211,0.126-1.764h1.576V30.05H97.214z"/>
	<path fill="#FFFFFF" d="M140.799-1.432h-3.096 M151.726-0.921"/>
	<path fill="#FFFFFF" d="M141.184,30.857c-1.731,0-3.389-0.218-4.923-0.646c-1.511-0.423-2.885-1.101-4.082-2.018l-0.813-0.62
		l-1.629,2.773h-1.608v-9.186h1.677c0.704,2.379,1.876,4.288,3.492,5.68c1.79,1.549,4.278,2.334,7.391,2.334
		c0.818,0,1.663-0.083,2.514-0.247c0.882-0.174,1.705-0.451,2.449-0.826c0.791-0.401,1.457-0.932,1.981-1.58
		c0.597-0.745,0.898-1.66,0.898-2.726c0-1.104-0.388-2.06-1.122-2.764c-0.644-0.611-1.48-1.053-2.49-1.315l-11.506-2.898
		c-1.898-0.506-3.318-1.411-4.207-2.687c-0.906-1.292-1.346-2.664-1.346-4.196c0-1.326,0.273-2.492,0.812-3.467
		c0.56-1.009,1.315-1.863,2.245-2.539c0.965-0.698,2.098-1.239,3.365-1.606c1.287-0.371,2.645-0.561,4.036-0.561
		c3.134,0,5.901,0.858,8.224,2.553l0.77,0.562l1.664-2.563h1.637v8.974h-1.683c-0.264-1.021-0.65-1.964-1.149-2.815
		c-0.631-1.078-1.406-2.009-2.306-2.767c-0.904-0.753-1.954-1.34-3.124-1.746c-1.167-0.401-2.419-0.604-3.725-0.604
		c-0.751,0-1.505,0.076-2.306,0.23c-0.817,0.165-1.55,0.428-2.181,0.782c-0.688,0.386-1.256,0.897-1.685,1.521
		c-0.476,0.684-0.717,1.53-0.717,2.513c0,0.92,0.286,1.75,0.852,2.463c0.542,0.678,1.376,1.175,2.479,1.479l9.985,2.605
		c1.035,0.267,2.019,0.604,2.926,0.999c0.831,0.363,1.57,0.84,2.195,1.423c0.602,0.563,1.064,1.227,1.412,2.029
		c0.342,0.786,0.515,1.776,0.515,2.942c0,1.406-0.29,2.632-0.863,3.645c-0.596,1.057-1.396,1.95-2.379,2.653
		c-1.014,0.731-2.195,1.287-3.513,1.651C144.005,30.668,142.605,30.857,141.184,30.857z"/>
	<path fill="#FFFFFF" d="M160.776,30.05v-1.427h2.475c0.6,0,1.068-0.124,1.431-0.378c0.382-0.271,0.658-0.645,0.823-1.111
		c0.138-0.397,0.202-0.824,0.202-1.315v-6.75l-9.456-13.3c-0.474-0.68-0.949-1.109-1.451-1.305
		c-0.423-0.172-1.044-0.254-1.941-0.254h-0.217V2.741h13.39V4.21h-2.282c-1.447,0-1.96,1.062-1.96,1.972
		c0,0.557,0.232,1.181,0.73,1.968c0.386,0.606,0.89,1.329,1.497,2.15c0.602,0.815,1.288,1.726,2.06,2.727
		c0.757,0.987,1.529,2.049,2.295,3.155l0.729,1.055l0.771-1.017c0.864-1.137,1.684-2.198,2.457-3.189
		c0.783-1,1.475-1.925,2.055-2.75c0.607-0.858,1.073-1.566,1.425-2.163c0.461-0.781,0.674-1.397,0.674-1.937
		c0-0.896-0.497-1.583-1.298-1.792c-0.44-0.121-1.048-0.181-1.846-0.181h-0.828V2.741h10.983V4.21h-0.221
		c-0.49,0-0.884,0.025-1.206,0.075c-0.383,0.057-0.754,0.189-1.099,0.394c-0.333,0.196-0.67,0.488-0.993,0.869
		c-0.268,0.317-0.599,0.736-0.997,1.271l-8.592,11.864v7.368c0,1.467,0.686,2.022,1.094,2.224c0.471,0.233,1.031,0.349,1.708,0.349
		h2.167v1.427H160.776z"/>
</g>
</svg>
