<?xml version="1.0" encoding="utf-8"?>
<!-- Generator: Adobe Illustrator 16.0.2, SVG Export Plug-In . SVG Version: 6.00 Build 0)  -->
<!DOCTYPE svg PUBLIC "-//W3C//DTD SVG 1.0//EN" "http://www.w3.org/TR/2001/REC-SVG-20010904/DTD/svg10.dtd">
<svg version="1.0" id="Layer_1" xmlns:sketch="http://www.bohemiancoding.com/sketch/ns"
	 xmlns="http://www.w3.org/2000/svg" xmlns:xlink="http://www.w3.org/1999/xlink" x="0px" y="0px" width="250px" height="31px"
	 viewBox="0 0 250 31" enable-background="new 0 0 250 31" xml:space="preserve">
<title>EnvatoTuts+_white</title>
<desc>Created with Sketch.</desc>
<rect x="-0.032" y="23.688" fill="#7AAC41" width="27.625" height="6.406"/>
<rect x="9.01" y="13.206" fill="#7AAC41" width="18.583" height="6.406"/>
<rect x="17.917" y="2.725" fill="#7AAC41" width="9.748" height="6.406"/>
<g>
	<path fill="#FCFCFC" d="M38.997,4.216v10.809h6.01c1.56,0,2.601-0.235,3.126-0.706c0.7-0.619,1.089-1.708,1.17-3.267h0.746v9.52
		h-0.746c-0.188-1.331-0.376-2.186-0.565-2.562c-0.241-0.471-0.638-0.841-1.189-1.11c-0.551-0.269-1.398-0.402-2.542-0.402h-6.01
		v9.016c0,1.209,0.054,1.945,0.162,2.208c0.106,0.262,0.295,0.47,0.564,0.625c0.27,0.155,0.78,0.231,1.533,0.231h4.639
		c1.546,0,2.668-0.107,3.368-0.322c0.699-0.216,1.371-0.639,2.016-1.271c0.833-0.833,1.688-2.091,2.562-3.771h0.807l-2.36,6.856
		H31.212v-0.746h0.968c0.646,0,1.257-0.154,1.835-0.464c0.431-0.215,0.723-0.538,0.877-0.969c0.155-0.429,0.232-1.31,0.232-2.64
		V7.483c0-1.735-0.174-2.803-0.524-3.207c-0.484-0.538-1.291-0.806-2.42-0.806h-0.968V2.724h21.075l0.303,5.99h-0.786
		c-0.282-1.439-0.595-2.427-0.938-2.965c-0.342-0.537-0.85-0.947-1.522-1.23c-0.537-0.201-1.486-0.302-2.844-0.302H38.997z"/>
	<path fill="#FCFCFC" d="M55.05,2.724h7.422l16.719,20.51V7.463c0-1.681-0.188-2.729-0.565-3.146
		c-0.497-0.565-1.284-0.847-2.359-0.847h-0.948V2.724h9.519V3.47h-0.968c-1.157,0-1.976,0.35-2.46,1.048
		c-0.296,0.431-0.444,1.412-0.444,2.945v23.052h-0.726L62.209,8.491v16.841c0,1.68,0.183,2.729,0.545,3.146
		c0.51,0.564,1.297,0.847,2.359,0.847h0.968v0.746h-9.519v-0.746h0.948c1.169,0,1.997-0.35,2.48-1.049
		c0.296-0.431,0.444-1.412,0.444-2.943V6.313c-0.792-0.928-1.395-1.54-1.805-1.835c-0.41-0.296-1.012-0.572-1.806-0.827
		C56.435,3.53,55.843,3.47,55.05,3.47V2.724z"/>
	<path fill="#FCFCFC" d="M94.054,4.216v10.809h6.01c1.56,0,2.602-0.235,3.126-0.706c0.7-0.619,1.089-1.708,1.17-3.267h0.746v9.52
		h-0.746c-0.188-1.331-0.376-2.186-0.565-2.562c-0.242-0.471-0.639-0.841-1.189-1.11c-0.551-0.269-1.398-0.402-2.542-0.402h-6.01
		v9.016c0,1.209,0.054,1.945,0.161,2.208c0.108,0.262,0.296,0.47,0.565,0.625c0.269,0.155,0.779,0.231,1.532,0.231h4.639
		c1.546,0,2.669-0.107,3.368-0.322c0.7-0.216,1.372-0.639,2.017-1.271c0.833-0.833,1.687-2.091,2.561-3.771h0.807l-2.359,6.856
		H86.269v-0.746h0.968c0.645,0,1.257-0.154,1.835-0.464c0.431-0.215,0.723-0.538,0.877-0.969c0.154-0.429,0.231-1.31,0.231-2.64
		V7.483c0-1.735-0.174-2.803-0.523-3.207c-0.484-0.538-1.291-0.806-2.42-0.806h-0.968V2.724h21.076l0.302,5.99h-0.786
		c-0.282-1.439-0.595-2.427-0.938-2.965c-0.343-0.537-0.851-0.947-1.523-1.23c-0.537-0.201-1.485-0.302-2.843-0.302H94.054z"/>
	<path fill="#FCFCFC" d="M129.59,2.098v9.459h-0.746c-0.242-1.815-0.678-3.261-1.302-4.336c-0.626-1.076-1.516-1.93-2.673-2.562
		c-1.156-0.632-2.352-0.948-3.589-0.948c-1.398,0-2.554,0.427-3.469,1.28c-0.914,0.854-1.372,1.826-1.372,2.915
		c0,0.833,0.29,1.593,0.868,2.279c0.833,1.008,2.816,2.353,5.949,4.034c2.554,1.372,4.299,2.422,5.234,3.156
		c0.934,0.733,1.653,1.597,2.158,2.592c0.504,0.995,0.756,2.037,0.756,3.126c0,2.07-0.803,3.855-2.41,5.355
		c-1.606,1.498-3.674,2.248-6.202,2.248c-0.792,0-1.54-0.062-2.238-0.182c-0.416-0.066-1.281-0.313-2.591-0.736
		s-2.142-0.636-2.49-0.636c-0.336,0-0.602,0.103-0.797,0.303c-0.195,0.201-0.339,0.618-0.434,1.251h-0.746v-9.379h0.746
		c0.35,1.964,0.82,3.433,1.412,4.407c0.591,0.975,1.496,1.785,2.712,2.429c1.217,0.647,2.551,0.969,4.003,0.969
		c1.681,0,3.008-0.443,3.983-1.331c0.976-0.888,1.463-1.936,1.463-3.146c0-0.671-0.186-1.351-0.555-2.036s-0.945-1.324-1.725-1.916
		c-0.523-0.402-1.956-1.261-4.296-2.571c-2.339-1.312-4.003-2.356-4.991-3.136c-0.989-0.779-1.738-1.64-2.249-2.581
		c-0.511-0.94-0.766-1.976-0.766-3.105c0-1.963,0.752-3.654,2.258-5.072c1.506-1.418,3.422-2.128,5.748-2.128
		c1.452,0,2.991,0.357,4.619,1.069c0.753,0.335,1.284,0.504,1.593,0.504c0.35,0,0.635-0.104,0.857-0.313
		c0.222-0.208,0.399-0.628,0.535-1.26H129.59z"/>
	<path fill="#FCFCFC" d="M153.307,2.724h9.539V3.47h-0.523c-0.35,0-0.863,0.155-1.535,0.464s-1.283,0.753-1.834,1.331
		c-0.551,0.578-1.229,1.519-2.037,2.824l-6.596,10.387v6.857c0,1.68,0.189,2.729,0.566,3.146c0.512,0.564,1.316,0.847,2.42,0.847
		h0.887v0.746h-11.615v-0.746h0.967c1.154,0,1.977-0.35,2.461-1.049c0.295-0.431,0.441-1.412,0.441-2.943v-6.475l-7.502-11.455
		c-0.885-1.344-1.488-2.185-1.805-2.521c-0.314-0.336-0.971-0.74-1.967-1.21c-0.268-0.134-0.657-0.202-1.168-0.202V2.724h11.697
		V3.47h-0.605c-0.633,0-1.215,0.147-1.744,0.443c-0.531,0.296-0.797,0.739-0.797,1.331c0,0.484,0.41,1.358,1.23,2.622l5.709,8.814
		l5.361-8.431c0.809-1.264,1.213-2.204,1.213-2.823c0-0.376-0.1-0.713-0.293-1.009c-0.197-0.296-0.475-0.528-0.84-0.696
		c-0.361-0.168-0.904-0.252-1.631-0.252V2.724z"/>
</g>
</svg>
