<?xml version="1.0" encoding="utf-8"?>
<!-- Generator: Adobe Illustrator 16.0.2, SVG Export Plug-In . SVG Version: 6.00 Build 0)  -->
<!DOCTYPE svg PUBLIC "-//W3C//DTD SVG 1.1//EN" "http://www.w3.org/Graphics/SVG/1.1/DTD/svg11.dtd">
<svg version="1.1" id="Layer_1" xmlns="http://www.w3.org/2000/svg" xmlns:xlink="http://www.w3.org/1999/xlink" x="0px" y="0px"
	 width="152px" height="18px" viewBox="0 0 152 18" enable-background="new 0 0 152 18" xml:space="preserve">
<g>
	<path fill="#FFFFFF" d="M21.971,0.383c3.579,0,5.369,1.77,5.369,5.309c0,0.504-0.036,1.043-0.108,1.619h-8.833
		c0,2.572,1.503,3.859,4.507,3.859c1.43,0,2.701-0.16,3.812-0.48v1.798c-1.111,0.32-2.461,0.48-4.052,0.48
		c-4.322,0-6.483-2.146-6.483-6.437C16.182,2.433,18.111,0.383,21.971,0.383z M18.399,5.465h6.808
		c-0.047-2.206-1.126-3.308-3.235-3.308C19.734,2.157,18.543,3.259,18.399,5.465z"/>
	<path fill="#FFFFFF" d="M30.214,12.968V0.383h1.498l0.396,1.606c1.287-1.071,2.701-1.606,4.243-1.606c3.14,0,4.71,1.563,4.71,4.686
		v7.899h-2.217V5.033c0-1.87-0.931-2.805-2.793-2.805c-1.271,0-2.477,0.531-3.619,1.594v9.145H30.214z"/>
	<path fill="#FFFFFF" d="M49.661,0.383c3.58,0,5.369,1.77,5.369,5.309c0,0.504-0.036,1.043-0.107,1.619H46.09
		c0,2.572,1.502,3.859,4.506,3.859c1.431,0,2.701-0.16,3.812-0.48v1.798c-1.111,0.32-2.461,0.48-4.051,0.48
		c-4.323,0-6.484-2.146-6.484-6.437C43.872,2.433,45.802,0.383,49.661,0.383z M46.09,5.465h6.807
		c-0.048-2.206-1.126-3.308-3.236-3.308C47.424,2.157,46.233,3.259,46.09,5.465z"/>
	<path fill="#FFFFFF" d="M57.789,12.368V10.45c1.479,0.479,2.972,0.72,4.483,0.72c2.005,0,3.008-0.601,3.008-1.799
		c0-1.117-0.699-1.678-2.097-1.678h-1.797c-2.717,0-4.075-1.237-4.075-3.715c0-2.397,1.746-3.595,5.238-3.595
		c1.502,0,2.992,0.2,4.47,0.599v1.917c-1.479-0.479-2.968-0.719-4.47-0.719c-2.094,0-3.14,0.599-3.14,1.797
		c0,1.119,0.659,1.678,1.978,1.678h1.797c2.876,0,4.315,1.238,4.315,3.715c0,2.396-1.742,3.597-5.226,3.597
		C60.761,12.968,59.268,12.768,57.789,12.368z"/>
	<path fill="#FFFFFF" d="M69.064,0.383h2.409l3.56,9.828l3.68-9.828h2.348l-5.225,12.956c-0.927,2.286-2.317,3.711-4.171,4.278
		l-0.851-1.569c1.407-0.615,2.429-1.618,3.068-3.009L69.064,0.383z"/>
</g>
<polygon id="XMLID_3675_" fill="#81B441" points="13.646,2.681 6.916,0.382 6.916,14.479 12.56,11.354 "/>
<polygon id="XMLID_3674_" fill="#81B441" points="0.36,2.72 1.359,11.394 6.916,14.479 6.916,0.382 "/>
</svg>
