<?xml version="1.0" encoding="utf-8"?>
<!-- Generator: Adobe Illustrator 16.0.2, SVG Export Plug-In . SVG Version: 6.00 Build 0)  -->
<!DOCTYPE svg PUBLIC "-//W3C//DTD SVG 1.1//EN" "http://www.w3.org/Graphics/SVG/1.1/DTD/svg11.dtd">
<svg version="1.1" id="Layer_1" xmlns="http://www.w3.org/2000/svg" xmlns:xlink="http://www.w3.org/1999/xlink" x="0px" y="0px"
	 width="16px" height="16px" viewBox="-4 -4 16 16" enable-background="new -4 -4 16 16" xml:space="preserve">
<path fill="#999999" d="M4-2C0.7-2-2,0.7-2,4c0,3.301,2.7,6,6,6c3.301,0,6-2.699,6-6C10,0.7,7.301-2,4-2z M4-0.5
	c2.49,0,4.5,2.01,4.5,4.5S6.49,8.5,4,8.5S-0.5,6.49-0.5,4S1.51-0.5,4-0.5z M3.25,1v3.33l0.24,0.195l0.75,0.749l0.51,0.571
	l1.081-1.081L5.26,4.255l-0.51-0.51V1.03h-1.5V1z"/>
</svg>
