<?xml version="1.0" encoding="utf-8"?>
<!-- Generator: Adobe Illustrator 16.0.2, SVG Export Plug-In . SVG Version: 6.00 Build 0)  -->
<!DOCTYPE svg PUBLIC "-//W3C//DTD SVG 1.1//EN" "http://www.w3.org/Graphics/SVG/1.1/DTD/svg11.dtd">
<svg version="1.1" id="Layer_1" xmlns="http://www.w3.org/2000/svg" xmlns:xlink="http://www.w3.org/1999/xlink" x="0px" y="0px"
	 width="101px" height="18px" viewBox="0 0 101 18" enable-background="new 0 0 101 18" xml:space="preserve">
<g>
	<g>
		<polygon fill="#80B440" points="6.889,2.148 0,2.148 0,9.03 		"/>
		<polygon fill="#80B440" points="6.967,15.885 13.751,15.885 13.751,9.108 		"/>
		<polygon fill="#80B440" points="13.751,5.083 13.751,2.148 10.917,2.148 0,13.054 0,15.885 2.938,15.885 		"/>
	</g>
	<g>
		<path fill="#FFFFFF" d="M17.228,15.812V2.148h9.371v2.11h-6.972v3.544h6.829v2.11h-6.829v3.79h6.972v2.11H17.228z"/>
		<path fill="#FFFFFF" d="M38.594,15.812l-7.136-9.751v9.751H29.06V2.148h2.46l6.993,9.485V2.148h2.399v13.664H38.594z"/>
		<path fill="#FFFFFF" d="M43.823,15.812V2.148h9.372v2.11h-6.972v3.544h6.829v2.11h-6.829v3.79h6.972v2.11H43.823z"/>
		<path fill="#FFFFFF" d="M54.773,13.886l1.333-1.843c0.944,1.003,2.42,1.884,4.327,1.884c1.969,0,2.749-0.962,2.749-1.864
			c0-2.868-7.977-1.085-7.977-6.125c0-2.254,1.989-3.995,4.982-3.995c2.133,0,3.856,0.676,5.127,1.906L63.94,5.63
			c-1.067-1.065-2.523-1.557-3.958-1.557c-1.415,0-2.317,0.676-2.317,1.7c0,2.54,7.957,0.963,7.957,6.063
			c0,2.273-1.599,4.22-5.291,4.22C57.809,16.057,55.983,15.176,54.773,13.886z"/>
		<path fill="#FFFFFF" d="M71.506,15.812v-5.674l-5.311-7.989h2.748l3.773,5.859l3.732-5.859h2.749l-5.292,7.989v5.674H71.506z"/>
	</g>
</g>
</svg>
