<?xml version="1.0" encoding="utf-8"?>
<!-- Generator: Adobe Illustrator 16.0.2, SVG Export Plug-In . SVG Version: 6.00 Build 0)  -->
<!DOCTYPE svg PUBLIC "-//W3C//DTD SVG 1.1//EN" "http://www.w3.org/Graphics/SVG/1.1/DTD/svg11.dtd">
<svg version="1.1" id="Layer_1" xmlns="http://www.w3.org/2000/svg" xmlns:xlink="http://www.w3.org/1999/xlink" x="0px" y="0px"
	 width="16px" height="16px" viewBox="0 0 16 16" enable-background="new 0 0 16 16" xml:space="preserve">
<path fill="#999999" d="M5.743,2v1.5h1.5v0.044c-2.55,0.36-4.5,2.565-4.5,5.205c0,2.895,2.354,5.25,5.25,5.25
	c2.895,0,5.25-2.355,5.25-5.25c0-0.675-0.15-1.305-0.374-1.875l-1.367,0.569c0.166,0.436,0.24,0.856,0.24,1.32
	c0,2.085-1.663,3.75-3.749,3.75c-2.085,0-3.75-1.665-3.75-3.75c0-2.084,1.666-3.75,3.75-3.75c0.449,0,0.885,0.075,1.319,0.24
	l0.512-1.41c-0.346-0.121-0.706-0.18-1.082-0.24V3.515h1.5v-1.5H5.743V2z M13.243,3.74c0,0-5.476,4.215-5.76,4.5
	c-0.285,0.3-0.285,0.735,0,1.034c0.285,0.3,0.734,0.3,1.035,0c0.3-0.299,4.74-5.535,4.74-5.535L13.243,3.74L13.243,3.74z"/>
</svg>
