<?xml version="1.0" encoding="utf-8"?>
<!-- Generator: Adobe Illustrator 16.0.2, SVG Export Plug-In . SVG Version: 6.00 Build 0)  -->
<!DOCTYPE svg PUBLIC "-//W3C//DTD SVG 1.1//EN" "http://www.w3.org/Graphics/SVG/1.1/DTD/svg11.dtd">
<svg version="1.1" id="Layer_1" xmlns="http://www.w3.org/2000/svg" xmlns:xlink="http://www.w3.org/1999/xlink" x="0px" y="0px"
	 width="101px" height="18px" viewBox="0 0 101 18" enable-background="new 0 0 101 18" xml:space="preserve">
<g>
	<g>
		<polygon fill="#80B440" points="8.785,0.262 0,0.262 0,9.038 		"/>
		<polygon fill="#80B440" points="8.885,17.78 17.537,17.78 17.537,9.138 		"/>
		<polygon fill="#80B440" points="17.537,4.005 17.537,0.262 13.923,0.262 0,14.17 0,17.78 3.747,17.78 		"/>
	</g>
	<g>
		<path fill="#FFFFFF" d="M21.97,17.687V0.261h11.951v2.691h-8.892v4.52h8.708v2.691h-8.708v4.833h8.892v2.691H21.97z"/>
		<path fill="#FFFFFF" d="M49.22,17.687L40.119,5.251v12.436h-3.06V0.261h3.138l8.918,12.096V0.261h3.06v17.426H49.22z"/>
		<path fill="#FFFFFF" d="M55.888,17.687V0.261H67.84v2.691h-8.892v4.52h8.709v2.691h-8.709v4.833h8.892v2.691H55.888z"/>
		<path fill="#FFFFFF" d="M69.853,15.231l1.699-2.351c1.204,1.28,3.086,2.403,5.518,2.403c2.511,0,3.505-1.228,3.505-2.377
			c0-3.657-10.173-1.384-10.173-7.811C70.402,2.221,72.939,0,76.756,0c2.721,0,4.917,0.862,6.539,2.43l-1.751,2.272
			c-1.36-1.358-3.217-1.985-5.048-1.985c-1.805,0-2.956,0.862-2.956,2.168c0,3.239,10.147,1.228,10.147,7.733
			c0,2.899-2.039,5.381-6.747,5.381C73.724,18,71.396,16.877,69.853,15.231z"/>
		<path fill="#FFFFFF" d="M91.192,17.687V10.45L84.419,0.261h3.504l4.812,7.472l4.76-7.472H101L94.252,10.45v7.237H91.192z"/>
	</g>
</g>
</svg>
