<?xml version="1.0" encoding="utf-8"?>
<!-- Generator: Adobe Illustrator 16.0.2, SVG Export Plug-In . SVG Version: 6.00 Build 0)  -->
<!DOCTYPE svg PUBLIC "-//W3C//DTD SVG 1.1//EN" "http://www.w3.org/Graphics/SVG/1.1/DTD/svg11.dtd">
<svg version="1.1" id="Layer_1" xmlns="http://www.w3.org/2000/svg" xmlns:xlink="http://www.w3.org/1999/xlink" x="0px" y="0px"
	 width="16px" height="16px" viewBox="0 0 16 16" enable-background="new 0 0 16 16" xml:space="preserve">
<title>share</title>
<g>
	<path fill="#999999" d="M12,3C8.032,3,7,4.8,7,7.8c1.643-3,4.157-2.795,5-2.795V3z M12,1v6l3-3L12,1z"/>
	<path fill="#999999" d="M14,7v4c0,1.113-0.9,2-2.01,2H4.01C2.9,13,2,12.105,2,11V5c0-1.113,0.9-2,2.01-2H7.2
		C6.603,3.56,6.15,4.23,5.816,5H4v6h8V9L14,7z M11,5h-0.04L11,4.99V5z"/>
</g>
</svg>
